<?xml version="1.0" encoding="utf-8"?>
<svg id="master-artboard" viewBox="0 0 474 474" version="1.1" xmlns="http://www.w3.org/2000/svg" x="0px" y="0px" enable-background="new 0 0 1400 980" width="474px" height="474px"><rect id="ee-background" x="0" y="0" width="474" height="474" style="fill: white; fill-opacity: 0; pointer-events: none;"/>
<path fill="#EDD865" d="M912.7,398.5v-51h-81.8V321h-59.5v26.6h-154V321H558v26.6h-80.7v51H558v13.8h-80.7v51h435.5v-51h-81.8&#10;&#9;&#9;v-13.8H912.7z M771.5,412.3h-154v-13.8h154V412.3z" transform="matrix(1, 0, 0, 1, -455.136962890625, -298.06488037109375)" style="fill: rgb(255, 255, 255);"/><path fill="#EDD865" d="M912.7,574.8v-95.6H701.4v95.6h67.4v17H620.1v-17h68.5v-95.6H477.3v95.6h78.1v17h-78.1v43.5h78.1v24.4&#10;&#9;&#9;h-78.1v95.6h211.4v-95.6h-68.5v-24.4h148.7v24.4h-67.4v95.6h211.4v-95.6h-79.1v-24.4h79.1v-43.5h-79.1v-17H912.7z M636.1,698v19.1&#10;&#9;&#9;H529.8V698H636.1z M529.8,536.6v-19.1h106.2v19.1H529.8z M860.2,698v19.1H753.9V698H860.2z M753.9,536.6v-19.1h106.2v19.1H753.9z" transform="matrix(1, 0, 0, 1, -455.136962890625, -298.06488037109375)" style="fill: rgb(255, 255, 255);"/>
</svg>